# xmcd CD database file
# Copyright (C) 1995-1998 Ti Kan
#
# Track frame offsets:
#	150
#	5157
#	20605
#	34097
#	53037
#	75385
#	91282
#	105632
#	124665
#	138072
#	158192
#
# Disc length: 2275 seconds
#
# Revision: 1
# Processed by: cddbd v1.4b42PL1 Copyright (c) Steve Scherf et al.
# Submitted via: CDex 1.30Release
#
DISCID=7e08e10b
DTITLE=R.L. Burnside - Come On In
DYEAR=1998
DGENRE=Blues
TTITLE0=Been Mistreated
TTITLE1=Come On In (Live)
TTITLE2=Let My Baby Ride
TTITLE3=Don't Stop Honey
TTITLE4=It's Bad You Know
TTITLE5=Just Like A Woman
TTITLE6=Come On In (Part 2)
TTITLE7=Rollin' Tumblin' (Remix)
TTITLE8=Please Don't Stay
TTITLE9=Shuck Dub
TTITLE10=Come On In (Part 3)
EXTD=YEAR: 1998 ID3G:   0
EXTT0=
EXTT1=
EXTT2=
EXTT3=
EXTT4=
EXTT5=
EXTT6=
EXTT7=
EXTT8=
EXTT9=
EXTT10=
PLAYORDER=
